<svg width="960" height="360" viewBox="0 0 960 360" fill="none" xmlns="http://www.w3.org/2000/svg">
  <defs>
  <linearGradient id="gMain" x1="8" y1="8" x2="248" y2="248" gradientUnits="userSpaceOnUse">
    <stop offset="0" stop-color="#0A8B46"/>
    <stop offset="0.55" stop-color="#089961"/>
    <stop offset="1" stop-color="#18A96E"/>
  </linearGradient>
  <linearGradient id="gDark" x1="32" y1="22" x2="220" y2="230" gradientUnits="userSpaceOnUse">
    <stop offset="0" stop-color="#0C6F3B"/>
    <stop offset="1" stop-color="#0A8B46"/>
  </linearGradient>
  <filter id="shadow" x="-20%" y="-20%" width="140%" height="150%">
    <feDropShadow dx="0" dy="14" stdDeviation="14" flood-color="#0A8B46" flood-opacity="0.20"/>
  </filter>
</defs>
  <rect width="960" height="360" rx="44" fill="#FCFDFC"/>
  <rect x="30" y="30" width="900" height="300" rx="38" fill="white" stroke="#E9F0ED"/>
  <g transform="translate(76 52)" filter="url(#shadow)"><rect width="256" height="256" rx="64" fill="url(#gMain)"/>
      <circle cx="128" cy="128" r="44" fill="white"/>
      <path d="M128 84v88M86 128h84" stroke="#0A8B46" stroke-width="18" stroke-linecap="round"/>
      <path d="M54 128c18-54 130-76 158-18M202 128c-18 54-130 76-158 18" stroke="white" stroke-width="13" stroke-linecap="round" opacity=".9"/>
      <circle cx="214" cy="110" r="14" fill="#FFA500"/><circle cx="42" cy="146" r="10" fill="#FFA500"/></g>
  <g transform="translate(358 105)">
    <text x="0" y="0" font-family="Inter, Poppins, Arial, sans-serif" font-size="62" font-weight="800" letter-spacing="-1" fill="#1B2026">eNKAMBA</text>
    <text x="0" y="54" font-family="Inter, Poppins, Arial, sans-serif" font-size="22" font-weight="600" fill="#477063">Super App Orbit</text>
    <text x="0" y="96" font-family="Inter, Poppins, Arial, sans-serif" font-size="17" font-weight="500" fill="#477063">Un centre unique connecte au paiement, marche, chat, reseau et logistique.</text>
    
  </g>
</svg>