<svg width="960" height="360" viewBox="0 0 960 360" fill="none" xmlns="http://www.w3.org/2000/svg">
  <defs>
  <linearGradient id="gMain" x1="8" y1="8" x2="248" y2="248" gradientUnits="userSpaceOnUse">
    <stop offset="0" stop-color="#0A8B46"/>
    <stop offset="0.55" stop-color="#089961"/>
    <stop offset="1" stop-color="#18A96E"/>
  </linearGradient>
  <linearGradient id="gDark" x1="32" y1="22" x2="220" y2="230" gradientUnits="userSpaceOnUse">
    <stop offset="0" stop-color="#0C6F3B"/>
    <stop offset="1" stop-color="#0A8B46"/>
  </linearGradient>
  <filter id="shadow" x="-20%" y="-20%" width="140%" height="150%">
    <feDropShadow dx="0" dy="14" stdDeviation="14" flood-color="#0A8B46" flood-opacity="0.20"/>
  </filter>
</defs>
  <rect width="960" height="360" rx="44" fill="#FCFDFC"/>
  <rect x="30" y="30" width="900" height="300" rx="38" fill="white" stroke="#E9F0ED"/>
  <g transform="translate(76 52)" filter="url(#shadow)"><rect width="256" height="256" rx="56" fill="#0A8B46"/>
      <path d="M128 42l74 28v58c0 54-32 86-74 104-42-18-74-50-74-104V70l74-28Z" fill="white"/>
      <path d="M92 130l26 26 52-62" stroke="#0A8B46" stroke-width="18" stroke-linecap="round" stroke-linejoin="round"/>
      <circle cx="196" cy="72" r="14" fill="#FFA500"/></g>
  <g transform="translate(358 105)">
    <text x="0" y="0" font-family="Inter, Poppins, Arial, sans-serif" font-size="62" font-weight="800" letter-spacing="-1" fill="#1B2026">eNKAMBA</text>
    <text x="0" y="54" font-family="Inter, Poppins, Arial, sans-serif" font-size="22" font-weight="600" fill="#477063">Shield Trust</text>
    <text x="0" y="96" font-family="Inter, Poppins, Arial, sans-serif" font-size="17" font-weight="500" fill="#477063">Identite securite, verification, KYC, paiement protege et confiance.</text>
    
  </g>
</svg>