<svg width="960" height="360" viewBox="0 0 960 360" fill="none" xmlns="http://www.w3.org/2000/svg">
  <defs>
  <linearGradient id="gMain" x1="8" y1="8" x2="248" y2="248" gradientUnits="userSpaceOnUse">
    <stop offset="0" stop-color="#073B9A"/>
    <stop offset="0.55" stop-color="#073B9A"/>
    <stop offset="1" stop-color="#073B9A"/>
  </linearGradient>
  <linearGradient id="gDark" x1="32" y1="22" x2="220" y2="230" gradientUnits="userSpaceOnUse">
    <stop offset="0" stop-color="#0C6F3B"/>
    <stop offset="1" stop-color="#073B9A"/>
  </linearGradient>
  <filter id="shadow" x="-20%" y="-20%" width="140%" height="150%">
    <feDropShadow dx="0" dy="14" stdDeviation="14" flood-color="#073B9A" flood-opacity="0.20"/>
  </filter>
</defs>
  <rect width="960" height="360" rx="44" fill="#FFFFFF"/>
  <rect x="30" y="30" width="900" height="300" rx="38" fill="white" stroke="#DCE6F8"/>
  <g transform="translate(76 52)" filter="url(#shadow)"><rect width="256" height="256" rx="56" fill="#073B9A"/>
      <path d="M58 98l42 38 28-58 28 58 42-38-18 92H76L58 98Z" fill="white"/>
      <path d="M82 190h92" stroke="white" stroke-width="18" stroke-linecap="round"/>
      <circle cx="58" cy="98" r="13" fill="#F51B2B"/><circle cx="128" cy="78" r="13" fill="#F51B2B"/><circle cx="198" cy="98" r="13" fill="#F51B2B"/></g>
  <g transform="translate(358 105)">
    <text x="0" y="0" font-family="Inter, Poppins, Arial, sans-serif" font-size="62" font-weight="800" letter-spacing="-1" fill="#10223F">KENZ</text>
    <text x="0" y="54" font-family="Inter, Poppins, Arial, sans-serif" font-size="22" font-weight="600" fill="#475569">Crown Hub</text>
    <text x="0" y="96" font-family="Inter, Poppins, Arial, sans-serif" font-size="17" font-weight="500" fill="#475569">Un logo premium pour plateforme centrale, fiable et institutionnelle.</text>
    
  </g>
</svg>